<svg xmlns="http://www.w3.org/2000/svg" viewBox="0 0 209.2 34.85">
  <defs>
    <style>
      .a {
        fill: #1a1a1a;
      }

      .b {
        fill: #fe3e57;
      }
    </style>
  </defs>
  <g>
    <path class="a" d="M0,34.4V.1H.55l16.23,19L32.85.1h.55V34.4h-5V16.78l.2-4.9a31.83,31.83,0,0,1-3,4.1L17,26.26h-.6L7.84,16l-3-4.1c.14,2,.2,3.63.2,4.9V34.4Z"/>
    <path class="a" d="M90.82,23.92,98,34.4H91.92l-6.09-8.94a27.87,27.87,0,0,1-2.85.2H79.79V34.4h-5.3V.45H83q7,0,10.81,3.39a11.79,11.79,0,0,1,3.82,9.29Q97.61,20.92,90.82,23.92Zm-11-2.8h3q9.43,0,9.44-8t-9.44-8h-3Z"/>
    <path class="b" d="M120.58,34.85a17,17,0,0,1-12.38-4.94,16.73,16.73,0,0,1-5-12.48A16.67,16.67,0,0,1,108.2,5,17,17,0,0,1,120.58.05q9.09,0,13.58,6.74l-4,2.9q-3.14-4.9-9.53-4.9a11.35,11.35,0,0,0-8.64,3.6,12.65,12.65,0,0,0-3.39,9,12.76,12.76,0,0,0,3.39,9.06,12.1,12.1,0,0,0,18.67-1.72l4,2.84Q129.92,34.85,120.58,34.85Z"/>
    <path class="b" d="M140.65,34.4V.45h5.29V15.72h16.33V.45h5.29V34.4h-5.29v-14H145.94v14Z"/>
    <path class="b" d="M191.73,34.85a17.18,17.18,0,0,1-12.46-4.94,16.71,16.71,0,0,1-5.07-12.48,16.72,16.72,0,0,1,5.07-12.49,18.11,18.11,0,0,1,24.86,0,16.72,16.72,0,0,1,5.07,12.49,16.71,16.71,0,0,1-5.07,12.48A17.1,17.1,0,0,1,191.73,34.85ZM183,26.49a12.26,12.26,0,0,0,17.4,0,12.73,12.73,0,0,0,3.4-9.06,12.73,12.73,0,0,0-3.4-9.07,12.26,12.26,0,0,0-17.4,0,12.71,12.71,0,0,0-3.42,9.07A12.7,12.7,0,0,0,183,26.49Z"/>
    <polygon class="a" points="54.07 0.1 53.47 0.1 38.94 34.4 44.04 34.4 53.67 9.54 63.46 34.4 68.95 34.4 54.07 0.1"/>
  </g>
</svg>
